<svg height='100px' width='100px'  fill="#000000" xmlns="http://www.w3.org/2000/svg" xmlns:xlink="http://www.w3.org/1999/xlink" version="1.1" x="0px" y="0px" viewBox="0 0 100 100" style="enable-background:new 0 0 100 100;" xml:space="preserve"><g><path d="M99.004,66.93c-2.594-7.024-6.541-16.611-26.715-17.524c-2.754-3.511-5.652-4.865-5.652-4.865s6.457-7.596,5.782-16.015   C71.506,17.477,63.6,0.779,42.967,0c-12.708,0.396-28.722,8.36-28.99,26.988c0.478,6.405,1.907,12.592,4.77,18.346   C13.064,48.942,7.7,56.758,5.627,60.381c-6.702,11.713-5.552,26.057-5.552,26.057l51.46,0.207   c6.068,10.563,17.788,16.24,31.697,11.874C97.141,94.153,102.392,80.998,99.004,66.93z M50.208,82.411   c-20.07,0.908-45.371-0.56-46.211-0.006C3.999,82.428,3.999,82.45,4,82.473c-0.034-0.025-0.032-0.048-0.002-0.067   C3.4,66.791,12.729,51.424,25.489,46.513c-3.941-3.7-8.042-11.622-7.783-20.13c-0.294-13.432,11.458-25.194,25.801-24.9   C56.818,1.995,68.15,12.415,68.361,28.03c-0.004,8.445-2.777,13.495-8.52,18.242c4.531,0.979,7.475,3.448,7.475,3.448   C53.119,54.848,46.732,69.972,50.208,82.411z M81.646,96.502c-11.451,3.75-23.752-4.051-27.742-15.426   c-3.8-11.213,2.705-23.063,14.166-26.217c11.752-4.373,24.281,2.479,27.584,13.63C99.021,80.098,93.193,92.962,81.646,96.502z    M89.088,72.267c0,0-0.215,6.733-0.493,6.595c0.033,0.301-10.253,0.18-10.253,0.18s-0.099,10.877-0.195,10.644h-6.808l0.257-10.71   c0,0-11.063-0.199-11.021-0.053c-0.066,0.067,0.575-7.05,0.374-6.818c-0.226-0.062,9.589-0.405,10.206-0.183   c-0.088-0.751,0.165-10.731,0.287-10.829c-0.244,0.123,7.004,0,7.004,0c-0.074,0.272,0.18,10.912-0.082,10.978   C78.604,72.279,89.088,72.267,89.088,72.267z"></path></g></svg>