<svg height='100px' width='100px'  fill="#000000" xmlns="http://www.w3.org/2000/svg" xmlns:xlink="http://www.w3.org/1999/xlink" version="1.1" x="0px" y="0px" viewBox="0 0 100 100" style="enable-background:new 0 0 100 100;" xml:space="preserve"><g><path d="M96.873,10.342C92.788,5.888,0,9.509,0,9.509c1.013,12.022-1.41,62.368,2.563,63.738c4.841,3.338,52.444,0.8,52.444,0.8   c7.438,1.535,30.501,18.496,38.174,17.813c-1.938-4.925-7.413-20.237-7.413-20.237s11.986,2.313,12.271-2.11   C101.397,63.493,100.067,14.452,96.873,10.342z M80.381,68.508c-0.441-0.719,5.415,16.67,6.408,17.665   c-10.979-5.132-28.45-17.083-28.45-17.083S5.24,71.968,4.1,68.381c0,0-0.707-50.736,0.102-56.086   c0.049,0.022,88.062-1.837,90.233,0.459c-0.785,1.513,0.355,55.552,0.355,55.552S83.854,68.304,80.381,68.508z M66.084,58.328   c0.138-0.051,0.278-0.1,0.412-0.153C66.448,58.246,66.253,58.297,66.084,58.328z M65.928,58.354   C65.805,58.37,65.76,58.37,65.928,58.354L65.928,58.354z M65.928,58.354c0.045-0.006,0.098-0.015,0.156-0.025   c-0.014,0.005-0.025,0.01-0.039,0.015C65.998,58.347,65.959,58.351,65.928,58.354z M83.549,21.127   c-11.236-2.331-31.303-1.007-36.083-1.022c-5.31-0.016-32.488,0.768-33.006,1.116c-9.19,1.683-5.7,11.517-1.766,12.597   c18.551,5.094,73.429,0.313,73.415,0.317c0,0,3.213-2.483,4.641-6.396C90.447,24.034,89.045,22.267,83.549,21.127z M84.332,29.884   c-3.68,2.855-71.765,2.839-71.511-1.285c0.081-1.569,1.372-4.183,1.372-4.183s62.081-0.39,66.459-0.324   C85.031,24.157,84.696,28.309,84.332,29.884z M53.547,44.585c-18.55-5.094-40.285-0.313-40.271-0.317c0,0-3.213,2.483-4.64,6.396   c0.302,3.706,1.705,5.472,7.201,6.612c11.236,2.331,35.427,0.254,35.945-0.094C60.971,55.498,57.48,45.665,53.547,44.585z    M52.049,53.986c0,0-28.937,0.39-33.316,0.324s-4.044-4.217-3.681-5.792c3.68-2.855,38.622-2.839,38.368,1.285   C53.339,51.373,52.049,53.986,52.049,53.986z"></path></g></svg>