<svg height='100px' width='100px'  fill="#000000" xmlns="http://www.w3.org/2000/svg" xmlns:xlink="http://www.w3.org/1999/xlink" version="1.1" x="0px" y="0px" viewBox="0 0 100 100" style="enable-background:new 0 0 100 100;" xml:space="preserve"><g><path d="M99.879,15.427c-0.135-0.736-47.557-11.249-68.332,2.962C19.023,27.007,7.312,40.824,10.711,57.072   c0.7,3.348,4.813,8.093,1.942,10.253c-1.627,1.224-10.554,8.606-12.622,7.268c-0.759,0.432,12.581,14.239,12.056,14.347   c2.305,1.125,9.311-12.521,8.828-13.599c18.77,19.618,39.61,8.139,45.787,3.049C91.613,62.719,101.21,14.632,99.879,15.427z    M65.396,75.327c-28.192,19.779-44.302-4.165-46.188-6.131c0.196,1.515-5.599,13.264-6.091,14.43c0.326-1.48-6.973-7.6-6.501-8.06   c7.912-6.623,12.051-6.128,9.262-15.568c-4.502-15.236,1.391-28.983,14.276-38.04c21.054-11.806,63.163-5.062,65.428-4.487   C93.922,27.506,84.467,63.889,65.396,75.327z M85.612,24.706c1.426,0.026-58.98,36.066-59.469,35.498   C33.725,38.741,86.511,24.797,85.612,24.706z"></path></g></svg>