<svg height='100px' width='100px'  fill="#000000" xmlns="http://www.w3.org/2000/svg" xmlns:xlink="http://www.w3.org/1999/xlink" xmlns:a="http://ns.adobe.com/AdobeSVGViewerExtensions/3.0/" version="1.1" x="0px" y="0px" viewBox="0 0 100 100" enable-background="new 0 0 100 100" xml:space="preserve"><path d="M99.8789063,0.1181641C97.015625,0.1113281,59.1074219-0.1396484,59.1044922,0.1113281  c0.222168,1.6289063,0.3583984,18.2216797,0.3583984,18.2216797c0.0922852,1.7548828,21.0024414,0.1943359,23.2973633,0.7744141  c0.0131836-0.2978516,0.4804688,63.7119141,0.4804688,63.7119141l-24.4399414,0.375c0,0,0.2705078,15.6162109,0.293457,15.5751953  C59.2226563,99.1582031,99.78125,100.9257813,100,99.3710938C99.3959961,99.1845703,99.5634766,0.8203125,99.8789063,0.1181641z   M95.8085938,96.9580078C94.315918,97.4091797,63.215332,96.375,62.9492188,96.0537109  c-0.175293,0.6054688-0.2285156-10.0878906-0.2285156-10.0878906s22.5097656,0.5595703,23.5615234,0.4394531  c0,0,0.5273438-71.7226563,0.0830078-71.6777344c0.5224609-0.0820313-23.9829102-1.0126953-23.5844727-0.0068359  c-0.1396484-1.2539063-0.1450195-9.9589844-0.2202148-10.6142578C62.722168,2.2607422,95.4829102,3.7744141,96.0478516,4.203125  C95.7822266,4.6035156,95.7949219,88.9824219,95.8085938,96.9580078z M74.6650391,50.6416016  c-2.6889648-0.5986328-53.4980469-39.7822266-53.921875-42.0771484c0.2080078,2.2148438,3.2294922,23.2705078,3.9179688,24.5830078  c-1.6289063-0.0009766-21.7988281,1.4013672-24.0317383,0.7529297C0,37.2060547,0,67.4355469,0,67.4355469  s24.1191406,0.4248047,24.6982422,0.0585938c0.3554688,0.8974609-2.5605469,17.4970703-3.4624023,23.609375  C29.0341797,86.3056641,72.2519531,52.3144531,74.6650391,50.6416016z M4.4765625,63.4345703  c-0.5595703,0.7402344,0.2294922-26.0957031,0.543457-24.7763672c-0.1455078,0.4648438,24.4570313-1.0136719,24.1879883-0.1230469  c0.7675781-0.7148438-3.734375-19.7558594-2.7285156-19.6972656C25.609375,18.8046875,68.875,51.5009766,69.0722656,51.4707031  c-1.1308594-0.7851563-42.7875977,31.9628906-43.1162109,31.0820313  c-0.4018555,0.4873047,3.1992188-18.1708984,2.9296875-19.0917969C28.1191406,63.7099609,4.5908203,63.7792969,4.4765625,63.4345703  z"></path></svg>