<?xml version="1.0" encoding="utf-8"?>
<svg version="1.1" id="Paperplane" xmlns="http://www.w3.org/2000/svg" xmlns:xlink="http://www.w3.org/1999/xlink" x="0px" y="0px"
	 viewBox="0 0 473 52" style="enable-background:new 0 0 473 52;" xml:space="preserve">
<g>
	<g>
		<path d="M2.7,6c-0.2-3.6,0-6,0.1-6.1l1,0.1c0,0-0.2,2.4-0.1,5.9L2.7,6z"/>
		<path d="M298.8,48.9l0-1c3.8,0,7.8-0.1,11.8-0.3l0,1C306.6,48.8,302.6,48.9,298.8,48.9z M286.9,48.8c-4-0.1-7.9-0.4-11.9-0.6
			l0.1-1c3.9,0.3,7.9,0.5,11.8,0.6L286.9,48.8z M322.5,48l-0.1-1c3.8-0.3,7.7-0.6,11.8-0.9l0.1,1C330.2,47.5,326.3,47.8,322.5,48z
			 M263.2,47c-3.8-0.4-7.8-1-11.8-1.6l0.2-1c4,0.6,7.9,1.1,11.7,1.6L263.2,47z M346.1,45.9l-0.1-1c3.7-0.4,7.6-0.9,11.8-1.4l0.1,1
			C353.7,45.1,349.9,45.5,346.1,45.9z M45.9,44.5c-1.7,0-3.4-0.1-5.1-0.2l0.1-1c3.7,0.3,7.6,0.2,11.8-0.1l0.1,1
			C50.4,44.4,48.1,44.5,45.9,44.5z M239.7,43.4c-3.8-0.7-7.7-1.5-11.6-2.3l0.2-1c3.9,0.8,7.9,1.6,11.6,2.3L239.7,43.4z M369.7,43.1
			l-0.1-1c3.8-0.5,7.7-1,11.8-1.6l0.1,1C377.4,42,373.5,42.6,369.7,43.1z M64.6,42.6l-0.2-1l0.5-0.1c3.9-0.7,7.6-1.5,11.1-2.2l0.2,1
			c-3.6,0.7-7.3,1.4-11.1,2.2L64.6,42.6z M29.1,42.3c-4-1.2-7.6-2.9-10.8-5.1l0.6-0.8c3.1,2.1,6.6,3.8,10.5,5L29.1,42.3z
			 M393.2,39.8l-0.1-1c3.8-0.5,7.7-1.1,11.7-1.7l0.1,1C400.9,38.7,397,39.3,393.2,39.8z M216.5,38.5c-1.4-0.3-2.8-0.7-4.2-1
			c-2.5-0.6-4.9-1.2-7.3-1.7l0.2-1c2.4,0.5,4.8,1.1,7.3,1.7c1.4,0.3,2.8,0.7,4.2,1L216.5,38.5z M87.9,38.1l-0.2-1
			c4.1-0.8,7.9-1.6,11.6-2.3l0.2,1C95.8,36.5,91.9,37.2,87.9,38.1z M111.1,33.6l-0.2-1c4.3-0.8,8.2-1.4,11.7-2l0.1,1
			C119.3,32.2,115.5,32.8,111.1,33.6z M193.4,33.3c-4.1-0.8-8-1.5-11.7-2l0.1-1c3.7,0.6,7.6,1.2,11.7,2L193.4,33.3z M134.6,30.1
			l-0.1-1c4.1-0.4,8-0.7,11.9-0.9l0,1C142.5,29.4,138.7,29.7,134.6,30.1z M170,29.9c-4.1-0.4-7.9-0.6-11.8-0.7l0-1
			c3.9,0.1,7.8,0.4,11.9,0.7L170,29.9z M9.9,28.6c-2.2-3.2-3.9-6.8-5.1-10.8l1-0.3c1.2,3.9,2.9,7.4,5,10.5L9.9,28.6z"/>
		<rect x="416.7" y="35" transform="matrix(0.9895 -0.1444 0.1444 0.9895 -0.7211 60.992)" width="6" height="1"/>
	</g>
	<path id="Tracé_38" d="M472.6,24.1c0.2-0.9-46-9.9-46.2-11c-0.1,0.4,10.5,16.4,10.7,16c-0.3,0.5,13.5-0.5,13.5-0.5
		s-11.5,4-12.4,4.3c0.1,0.7-3.2,15-4.3,18.7C435,50.1,472.4,24.7,472.6,24.1z M436.6,46.8c0.3-0.4,2.8-12,2.6-12
		c1.6-0.6,17.3-6.9,20.9-8.2c-4.1,0.6-22.3,0.5-22.4,0.7c-0.2-0.8-7.3-11.2-8.1-12c1.9,0.7,39.7,9.5,40.3,9
		C469.8,24.4,437,47.4,436.6,46.8z"/>
</g>
</svg>
