<svg height='100px' width='100px'  fill="#000000" xmlns="http://www.w3.org/2000/svg" xmlns:xlink="http://www.w3.org/1999/xlink" version="1.1" x="0px" y="0px" viewBox="0 0 100 100" style="enable-background:new 0 0 100 100;" xml:space="preserve"><g><path d="M99.996,0.062C99.174-1.804,1.72,39.431,0,37.709c0.29,0.875,40.236,17.339,40,16.344   c0.066,1.305,24.638-17.91,24.638-17.91S48.341,58.099,46.879,59.854c1.165,1.195,13,31.963,15.516,40.146   C62.631,95.736,100.448,1.463,99.996,0.062z M61.482,87.636c0.023-1.146-9.904-25.931-10.125-25.657   c2.334-3.087,23.496-34.592,28.717-41.544c-6.988,6.307-40.906,29.071-40.788,29.421c-1.39-1.283-27.732-11.603-30.19-12.071   C13.46,36.801,95.1,5.519,95.529,3.882C95.27,4.186,62.967,88.352,61.482,87.636z"></path></g></svg>