<svg height='100px' width='100px'  fill="#000000" xmlns="http://www.w3.org/2000/svg" xmlns:xlink="http://www.w3.org/1999/xlink" version="1.1" x="0px" y="0px" viewBox="0 0 100 100" style="enable-background:new 0 0 100 100;" xml:space="preserve"><g><path d="M95.537,25.656c0,0-12.446,0.239-19.145-0.354c-3.3-10.651-11.834-21.25-26.677-21.25   c-17.589,0-23.977,14.145-23.931,21.577c-1.2,0.1-20.45-0.251-20.45-0.251S0.565,63.798,0,65.713l3.9,0.174   c0,0,0.348,18.517,0.493,22.881c0,0-0.175,5.932,7.071,6.759c7.247,0.826,71.502,0.169,76.372,0.262   c5.52,0.104,9.143-0.319,8.893-4.25c-0.251-3.932-0.308-26.071-0.308-26.071s3.467-0.029,3.576-0.605   C100.098,63.999,97.384,27.322,95.537,25.656z M50.304,7.301c10.729,0.203,19.778,7.44,21.283,17.824l-4.257,0.147   c-1.137-6.574-10.558-14.248-16.634-13.963c-14.27,0.667-16.284,14.558-16.284,14.558s-4.43-0.141-5.032,0.089   C31.471,16.026,39.874,7.403,50.304,7.301z M62.512,24.992c0.18,0.102-23.892-0.09-24.06,0.069   c1.727-5.093,6.202-10.238,12.245-10.483C56.26,14.823,60.881,19.856,62.512,24.992z M90.517,92.911   c-0.624-0.011-73.14,0.354-78.791-0.523c-3.077-0.478-4.298-2.661-4.5-4.433c-0.758-6.649-0.242-21.569,0.082-22.118   c0.411-0.694,23.32-0.176,26.426-0.129c0,0,0.061,3.557,4.843,5.256c3.25,1.154,15.043,1.731,22.516,0.721   c5.049-0.36,5.617-3.426,5.542-6.163c5.792-0.529,27.386-0.011,27.386-0.011l0.021,23.259   C93.909,91.271,92.539,92.946,90.517,92.911z M37.907,63.286c0-6.853,9.381-5.616,12.571-5.615   c7.91,0.002,12.932,0.309,12.815,6.378c-0.141,5.472-5.278,4.303-12.408,4.368C43.21,68.487,37.649,68.336,37.907,63.286z    M66.553,61.896c0.176-2.672-2.374-5.487-5.821-6.08c-5.26-1.056-18.673-0.939-21.485-0.051c-4.895,1.545-4.645,5.334-5.34,6.313   c-0.695,0.979-29.821-0.095-29.821-0.095s4.588-33.059,4.619-33.251c0.683,0.381,84.18-0.336,83.54,0.261   c0.397,0.351,5.256,32.748,5.256,32.748C97.398,62.619,67.793,61.682,66.553,61.896z"></path></g></svg>