<svg viewBox="0 0 561 157" xmlns="http://www.w3.org/2000/svg"><path d="M3.36 71.68c0-.83.17-1.73.51-2.69s.8-1.88 1.38-2.75c.59-.88 1.3-1.61 2.13-2.19.84-.58 1.71-.87 2.63-.87-.01 5.43.94 9.71 2.86 12.85 1.92 3.13 4.56 5.54 7.94 7.22s7.24 2.81 11.58 3.41c4.34.59 9.02 1.02 14.03 1.28 1.67-.08 3.86-.14 6.58-.18 2.71-.03 5.33-.32 7.83-.86s4.64-1.43 6.4-2.68 2.59-3.17 2.52-5.76c0-1.17-.04-2.21-.12-3.13s-.27-1.73-.56-2.44-.79-1.4-1.5-2.07-1.69-1.34-2.94-2.01L27.46 48.42c-1.34-.75-2.63-1.7-3.88-2.83s-2.29-2.38-3.13-3.76c-.83-1.38-1.5-2.84-2-4.39s-.75-3.07-.74-4.58c.01-3.17.87-5.76 2.58-7.76s3.85-3.6 6.4-4.81c2.55-1.2 5.31-2.06 8.27-2.55 2.97-.5 5.7-.74 8.21-.74 1.17 0 2.67.11 4.51.32 1.84.22 3.8.53 5.89.95 2.09.43 4.15.97 6.2 1.64 2.04.67 3.86 1.53 5.45 2.58 1.58 1.05 2.9 2.26 3.94 3.64s1.56 2.99 1.56 4.83c-1.17.67-2.36.87-3.57.62s-2.44-.71-3.69-1.38-2.55-1.42-3.88-2.26c-1.34-.84-2.71-1.68-4.13-2.52s-2.92-1.51-4.51-2.01-3.26-.68-5.01-.51c-1.59 0-3.63.08-6.14.24s-4.95.56-7.33 1.18-4.43 1.58-6.15 2.87-2.57 3.11-2.58 5.44c0 2.26.78 4.33 2.37 6.21 1.58 1.88 3.73 3.69 6.44 5.4 2.71 1.72 5.76 3.35 9.14 4.9s6.8 3.15 10.26 4.78c3.46 1.64 6.84 3.33 10.14 5.1 3.29 1.76 6.17 3.69 8.63 5.78s4.38 4.33 5.75 6.71c1.37 2.39 1.85 5.08 1.42 8.09-.42 3-1.72 5.59-3.9 7.76s-4.94 3.85-8.28 5.06-7.06 1.99-11.16 2.36-8.31.34-12.66-.09c-4.34-.43-8.64-1.23-12.9-2.41s-8.14-2.75-11.64-4.72-6.51-4.27-9.01-6.91c-2.48-2.64-4.15-5.63-4.97-8.97zM83.02 19.33c0-1 .29-1.65.88-1.94.58-.29 1.34-.43 2.26-.43.58-.08 1.36.28 2.32 1.07s1.75 1.69 2.37 2.7c.63 1 .98 1.92 1.06 2.76.08 1-.55 1.59-1.88 1.75h-.63c-1.25 0-2.3-.08-3.13-.26-.84-.17-1.48-.44-1.94-.82s-.79-.94-1-1.69c-.21-.76-.31-1.81-.31-3.14zm6.33 31.46v-1.88c0-.92.02-1.88.07-2.88.04-1 .07-1.96.07-2.88v-1.88c-.33-2.59.42-3.88 2.26-3.88.83 0 1.54.21 2.13.63.58.42 1.13 1.05 1.63 1.88-.26 4.34-.08 8.54.54 12.59s1.32 8.07 2.11 12.03c.78 3.97 1.53 7.96 2.23 11.97s1.05 8.19 1.04 12.53c0 1.17-.36 2.34-1.07 3.51s-1.78 1.75-3.2 1.75c-1.09 0-2.03-.94-2.81-2.82-.79-1.88-1.48-4.26-2.05-7.15-.58-2.88-1.08-6.08-1.49-9.59s-.72-6.87-.92-10.09-.34-6.1-.42-8.65c-.08-2.54-.12-4.27-.12-5.19zM120.93 51.1c-.67 0-1.84 0-3.51-.01-1.67 0-3.41-.15-5.2-.45-1.8-.29-3.42-.78-4.88-1.45s-2.19-1.63-2.19-2.88c0-.33.07-.82.19-1.44.13-.63.52-.94 1.19-.94l12.91-1.11c.34-3.09.59-5.61.77-7.58.17-1.96.21-3.8.14-5.51-.08-1.71-.18-3.51-.3-5.39s-.22-4.32-.3-7.33c0-.58.13-1.04.38-1.38.25-.33.57-.58.94-.75.38-.17.79-.29 1.25-.37s.81-.13 1.07-.13c.5 0 1.02.17 1.57.51.54.33 1.02.75 1.44 1.26.42.5.75 1.02 1 1.57s.37 1.07.37 1.57l.96 23.43 10.77.52c1.42-.16 2.73.11 3.95.82 1.21.71 1.85 2.03 1.93 3.95-1 1.09-2.22 1.73-3.64 1.94-1.42.2-2.91.28-4.45.24-1.55-.04-3.07-.05-4.57-.01s-2.84.43-4.01 1.18c0 .5.04 1.88.12 4.13.08 2.26.16 4.93.24 8.02s.18 6.39.29 9.9c.12 3.51.21 6.75.29 9.71.08 2.97.13 5.5.17 7.58.04 2.09.06 3.26.06 3.51-1.92 1.16-3.47 1.06-4.64-.32s-2.1-3.43-2.81-6.14c-.71-2.72-1.2-5.89-1.49-9.53s-.45-7.23-.48-10.78c-.04-3.55-.01-6.83.08-9.84.09-3 .21-5.17.39-6.5zM148.35 60.67c.01-4.34.66-8.5 1.97-12.46 1.3-3.97 3.19-7.45 5.66-10.45s5.48-5.4 9.03-7.19 7.67-2.68 12.35-2.67c2.76.34 5.15 1.1 7.2 2.27 2.04 1.18 3.71 2.62 5 4.33s2.23 3.7 2.81 5.96c.5 2.18.74 4.51.74 7.02-.01 3.01-.89 5.72-2.65 8.14s-3.98 4.44-6.65 6.06c-2.68 1.63-5.56 2.87-8.65 3.74s-5.98 1.31-8.65 1.3c-1 0-2.03 0-3.07-.01-1.05 0-1.99-.17-2.82-.51-.84-.33-1.5-.84-2-1.51s-.75-1.67-.75-3.01c0-.42.06-.77.19-1.07.13-.29.48-.5 1.07-.62.58-.13 1.46-.14 2.63-.06 1.17.17 2.76.43 4.76.76 1.17 0 2.86-.39 5.08-1.18 2.21-.79 4.47-1.81 6.77-3.06s4.28-2.69 5.96-4.31c1.67-1.62 2.51-3.23 2.51-4.82 0-1.67-.27-3.32-.8-4.95-.54-1.63-1.35-3.07-2.44-4.33-1.08-1.26-2.36-2.26-3.82-3.01s-3.11-1.05-4.95-.89c-2.92.25-5.58 1.04-7.96 2.37s-4.41 3.06-6.09 5.19-2.98 4.49-3.9 7.07a24.13 24.13 0 00-1.39 8.14c0 2.17.03 4.34.11 6.52.08 2.17.39 4.31.93 6.39.54 2.09 1.41 4.1 2.62 6.02 1.21 1.93 2.96 3.62 5.25 5.08 2.29 1.47 5.19 2.69 8.7 3.65 3.51.97 7.85 1.58 13.03 1.84l22.43-1.46c-1.34 1.84-3.04 3.34-5.08 4.5-2.05 1.17-4.22 2.1-6.52 2.81s-4.58 1.23-6.83 1.56c-2.26.33-4.39.49-6.39.49-4.85-.01-9.4-.81-13.65-2.41-4.26-1.59-8.01-3.84-11.26-6.72-3.25-2.89-5.81-6.4-7.69-10.54-1.87-4.13-2.8-8.79-2.79-13.97z"/><g><path d="M228.65 65.96c0-3.09.41-6.34 1.21-9.77.8-3.42 2.06-6.59 3.78-9.52 1.72-2.92 3.89-5.32 6.53-7.19 2.63-1.87 5.87-2.81 9.72-2.8 2 0 4.01.3 6.01.89s4.07 1.43 6.2 2.52 4.34 2.37 6.63 3.84 4.73 3.08 7.32 4.84c.34-3.34.22-6.79-.36-10.34s-1.32-7.04-2.24-10.47c-.91-3.43-1.85-6.67-2.8-9.72-.96-3.05-1.64-5.79-2.05-8.21s-.45-4.43-.11-6.01 1.34-2.58 3.01-3c2.25 1.68 4.19 4.04 5.81 7.09s3.01 6.58 4.18 10.59c1.16 4.01 2.11 8.3 2.86 12.85.74 4.56 1.36 9.17 1.85 13.85s.88 9.23 1.16 13.66.59 8.5.92 12.22.63 6.89.92 9.53c.29 2.63.72 4.49 1.3 5.58 0 1.34-.49 2.17-1.44 2.5-.96.33-1.94.5-2.95.5-.84 0-1.55-.32-2.13-.95s-1.04-1.36-1.37-2.19-.65-1.78-.93-2.82c-.29-1.04-.6-2-.93-2.88s-.71-1.61-1.12-2.19c-.42-.58-.96-.88-1.63-.88-.17 0-.4.02-.69.06s-.44.1-.44.18c-1.59 2.17-3.45 4.28-5.59 6.32a39.633 39.633 0 01-7.03 5.37c-2.55 1.54-5.23 2.77-8.03 3.68s-5.62 1.37-8.46 1.36c-3.18 0-5.95-1.05-8.33-3.15-2.38-2.09-4.38-4.6-6-7.53s-2.83-6.02-3.62-9.28c-.78-3.27-1.17-6.11-1.16-8.53zm7.76 2.27c.83 3.01 1.57 5.64 2.24 7.9.66 2.26 1.47 4.1 2.43 5.52s2.1 2.49 3.44 3.2c1.33.71 3.09 1.07 5.26 1.08 2.67 0 5.51-.76 8.53-2.3 3.01-1.54 5.81-3.51 8.41-5.93 2.59-2.42 4.73-5.07 6.4-7.94 1.67-2.88 2.52-5.66 2.52-8.33v-3c-4.42-4.35-8.49-7.47-12.2-9.36-3.72-1.88-7.03-2.85-9.96-2.9-2.92-.05-5.47.6-7.65 1.93s-3.98 3.08-5.4 5.25-2.47 4.59-3.15 7.26c-.65 2.65-.95 5.2-.87 7.62zM341.65 76.45c-1.93 1.08-3.58 2.4-4.96 3.94s-2.78 3-4.21 4.38c-1.42 1.38-2.99 2.56-4.7 3.56s-3.91 1.5-6.58 1.49c-3.01 0-5.72-.66-8.14-1.96s-4.57-3.06-6.44-5.27c-1.87-2.22-3.5-4.72-4.87-7.53-1.37-2.8-2.5-5.68-3.37-8.65s-1.54-5.89-1.99-8.78c-.45-2.88-.68-5.49-.67-7.83-.66-4.51-.53-8.04.4-10.59.92-2.55 2.03-4.17 3.33-4.88 1.29-.71 2.4-.54 3.32.51s1.04 2.87.37 5.45c-.17.33-.29.86-.38 1.56-.09.71-.17 1.44-.26 2.19s-.17 1.46-.25 2.13c-.09.67-.13 1.13-.13 1.38 0 1.75.16 3.82.49 6.2s.85 4.87 1.55 7.46 1.6 5.16 2.68 7.71 2.37 4.83 3.87 6.84 3.23 3.64 5.19 4.9 4.11 1.89 6.45 1.89c1.5 0 3.22-.72 5.14-2.18s3.74-3.21 5.46-5.25a41.57 41.57 0 004.4-6.32c1.21-2.17 1.83-4.01 1.83-5.51 0-.83.02-2.21.07-4.13.04-1.92.07-3.97.08-6.14 0-2.17-.01-4.22-.05-6.14s-.06-3.26-.06-4.01c.5-.83 1.05-1.48 1.63-1.94.58-.45 1.29-.69 2.13-.68 1 0 1.84.67 2.5 2.01s1.2 3.05 1.62 5.14c.41 2.09.7 4.35.86 6.77s.28 4.76.36 7.02.16 4.24.24 5.95.2 2.86.37 3.45c.41 1.67 1.01 3.55 1.81 5.64.79 2.09 1.56 4.12 2.31 6.08.75 1.97 1.41 3.76 1.99 5.39s.87 2.86.87 3.7c0 1.25-.36 2-1.07 2.25s-1.61.37-2.7.37c-1.34 0-2.32-.34-2.94-1.01s-1.08-1.53-1.37-2.57-.52-2.2-.68-3.45c-.17-1.25-.43-2.55-.81-3.88s-.91-2.59-1.62-3.76c-.72-1.19-1.74-2.15-3.07-2.9z"/></g><g><path d="M374.48 66.23c0-3.09.41-6.34 1.21-9.77.8-3.42 2.06-6.59 3.78-9.52 1.72-2.92 3.89-5.32 6.53-7.19 2.63-1.87 5.87-2.81 9.71-2.8 2 0 4.01.3 6.01.89s4.07 1.43 6.2 2.52 4.34 2.37 6.63 3.84 4.73 3.08 7.32 4.84c.34-3.34.22-6.79-.36-10.34s-1.32-7.04-2.24-10.47c-.91-3.43-1.85-6.67-2.8-9.72-.96-3.05-1.64-5.79-2.05-8.21-.42-2.42-.45-4.43-.11-6.01.33-1.58 1.34-2.58 3.01-3 2.25 1.68 4.19 4.04 5.81 7.09s3.01 6.58 4.18 10.59c1.16 4.01 2.12 8.3 2.86 12.85.74 4.56 1.36 9.17 1.85 13.85s.88 9.23 1.16 13.66.59 8.5.92 12.22.63 6.89.92 9.53c.29 2.63.72 4.49 1.3 5.58 0 1.34-.48 2.17-1.44 2.5s-1.94.5-2.95.5c-.84 0-1.55-.32-2.13-.95s-1.04-1.36-1.37-2.19-.65-1.78-.94-2.82-.6-2-.93-2.88-.71-1.61-1.12-2.19c-.42-.58-.96-.88-1.63-.88-.17 0-.4.02-.69.06s-.44.1-.44.18c-1.59 2.17-3.45 4.28-5.59 6.32a39.633 39.633 0 01-7.03 5.37c-2.55 1.54-5.23 2.77-8.03 3.68s-5.62 1.37-8.46 1.36c-3.17 0-5.95-1.05-8.33-3.15-2.38-2.09-4.38-4.6-6-7.53s-2.83-6.02-3.62-9.28c-.75-3.26-1.14-6.1-1.14-8.53zm7.77 2.27c.83 3.01 1.57 5.64 2.24 7.9.66 2.26 1.47 4.1 2.43 5.52s2.1 2.49 3.44 3.2c1.33.71 3.09 1.07 5.26 1.08 2.67 0 5.51-.76 8.53-2.3 3.01-1.54 5.81-3.51 8.4-5.93s4.73-5.07 6.4-7.94c1.68-2.88 2.52-5.66 2.52-8.33v-3c-4.42-4.35-8.49-7.47-12.2-9.36-3.72-1.88-7.03-2.85-9.96-2.9-2.92-.05-5.47.6-7.65 1.93s-3.98 3.08-5.4 5.25-2.47 4.59-3.15 7.26c-.64 2.66-.94 5.2-.86 7.62zM441.76 69.24c.01-4.59 1.02-8.6 3.03-12.02s4.65-6.3 7.91-8.63 6.92-4.06 10.97-5.18 8.12-1.68 12.22-1.67c2.17 0 4.2.41 6.08 1.2 1.88.8 3.67 1.89 5.38 3.27s3.23 2.97 4.56 4.77 2.48 3.66 3.43 5.58c.96 1.93 1.69 3.87 2.18 5.83.5 1.96.74 3.86.74 5.7-.01 4.26-.85 8.06-2.53 11.4s-3.94 6.15-6.78 8.45c-2.85 2.29-6.07 4.04-9.66 5.25-3.6 1.2-7.27 1.8-11.03 1.79-3.84-.01-7.37-.62-10.58-1.84-3.22-1.22-6.01-2.91-8.39-5.09s-4.23-4.87-5.56-8.09c-1.31-3.22-1.97-6.79-1.97-10.72zm6.15-.99c0 2.59.47 5.08 1.42 7.46.96 2.39 2.29 4.45 4 6.21s3.73 3.16 6.07 4.21 4.84 1.57 7.52 1.58c1.42.17 3.15-.05 5.2-.68 2.05-.62 4.09-1.54 6.14-2.74s4.01-2.66 5.9-4.37c1.88-1.71 3.45-3.59 4.71-5.63s2.03-4.17 2.33-6.38-.08-4.43-1.11-6.65c-1.04-2.21-2.94-4.35-5.69-6.4s-6.55-3.96-11.39-5.72c-2.76 0-5.62.39-8.58 1.17-2.97.79-5.67 1.98-8.09 3.56a20.527 20.527 0 00-6.03 6c-1.6 2.41-2.4 5.21-2.4 8.38zM505.58 46.06c0-.75.27-1.23.82-1.44.54-.21 1.15-.31 1.82-.31.5 0 .85.13 1.06.38s.35.55.44.88c.08.33.21.65.37.94.17.3.46.44.88.44 1.17 0 2.59-.45 4.26-1.37 1.67-.91 3.49-1.91 5.46-3 1.96-1.08 4.05-2.08 6.27-2.99 2.21-.91 4.41-1.37 6.58-1.37 2.84.01 5.45.74 7.83 2.21s4.5 3.41 6.38 5.84c1.87 2.43 3.48 5.14 4.81 8.15s2.45 6.08 3.37 9.22c.91 3.13 1.57 6.19 1.99 9.15.41 2.97.62 5.54.61 7.71 0 .75-.07 1.88-.19 3.38-.13 1.5-.34 3.01-.63 4.51-.3 1.5-.78 2.82-1.45 3.95-.67 1.12-1.51 1.69-2.51 1.69-.17 0-.46-.02-.88-.07-.42-.04-.84-.12-1.25-.25-.42-.12-.77-.27-1.06-.44s-.44-.42-.44-.75c.76-6.43.78-12.46.03-18.11-.74-5.64-1.94-10.59-3.61-14.85-1.66-4.26-3.7-7.65-6.12-10.16s-5-3.77-7.76-3.77c-2.59 0-5.01.41-7.27 1.24s-4.22 2.04-5.9 3.62-2.99 3.5-3.96 5.76c-.97 2.25-1.45 4.71-1.45 7.39s.24 5.33.74 7.96 1.06 5.26 1.68 7.9c.62 2.63 1.18 5.28 1.68 7.96s.74 5.35.74 8.02c-2.34 0-4.3-.97-5.88-2.89-1.58-1.93-2.85-4.39-3.81-7.4s-1.7-6.4-2.24-10.15c-.54-3.76-.91-7.46-1.11-11.09-.2-3.64-.3-7.06-.29-10.27-.02-3.25-.01-5.78-.01-7.62z"/></g><path d="M4.53 157a3.52 3.52 0 01-3-1.67 3.52 3.52 0 011.13-4.85c2.55-1.58 63.3-38.57 143.41-23.11 116.35 22.46 255.84 37.94 408.2-17.46 1.83-.67 3.85.28 4.51 2.11.67 1.83-.28 3.85-2.11 4.51-153.97 55.99-294.64 40.39-411.94 17.76-77.42-14.94-137.75 21.8-138.35 22.18-.58.36-1.22.53-1.85.53z"/></svg>