<svg height='100px' width='100px'  fill="#000000" xmlns="http://www.w3.org/2000/svg" xmlns:xlink="http://www.w3.org/1999/xlink" version="1.1" x="0px" y="0px" viewBox="0 0 100 100" style="enable-background:new 0 0 100 100;" xml:space="preserve"><g><path d="M51.773,0.079C24.657-1.344,1.877,22.395,0.001,49.464c-0.215,27.787,22.11,50.632,51.422,50.535   c27.248-0.963,48.813-22.439,48.574-51.168C99.742,21.878,79.26-1.535,51.773,0.079z M52.629,95.915   C23.559,95.907,1.227,74.656,3.803,50C5.583,23.661,26.664,4.087,49.666,2.732c26.5,0.19,46.061,22.367,44.713,48.092   C96.77,74.919,75.982,96.16,52.629,95.915z M33.525,49.706l0.025-1.576c6.179-0.57,11.675-4.068,11.62-10.69   c-0.062-6.452-4.983-12.075-11.562-11.688c-6.49-0.341-11.962,5.36-12.412,11.84C21.146,44.242,26.508,49.729,33.525,49.706z    M33.122,29.426l-0.049-1.221c4.639,0.033,8.49,4.982,8.253,9.484c0.419,4.218-3.525,8.088-7.612,8.045   c-5.089-0.002-8.742-3.717-8.291-8.033C24.973,33.315,29.212,29.85,33.122,29.426z M81.927,57.001   c-0.132,0.036-63.113,0.14-63.113,0.14s8.072,22.405,32.688,22.772C76.346,79.59,83.08,57.128,81.927,57.001z M75.421,60.828   c-4.497,9.19-14.152,15.124-23.513,15.084c-12.443-0.001-22.459-6.865-25.956-15.903C24.572,59.95,73.814,61.024,75.421,60.828   c0.003-0.006,0.007-0.013,0.01-0.019C75.477,60.816,75.471,60.822,75.421,60.828z M68.881,49.706l0.025-1.576   c6.179-0.57,11.674-4.068,11.619-10.69c-0.061-6.452-4.982-12.075-11.562-11.688c-6.489-0.341-11.962,5.36-12.411,11.84   C56.5,44.242,61.863,49.729,68.881,49.706z M68.477,29.426l-0.049-1.221c4.639,0.033,8.49,4.982,8.254,9.484   c0.419,4.218-3.525,8.088-7.613,8.045c-5.089-0.002-8.742-3.717-8.29-8.033C60.328,33.315,64.568,29.85,68.477,29.426z"></path></g></svg>