<svg height='100px' width='100px'  fill="#000000" xmlns="http://www.w3.org/2000/svg" xmlns:xlink="http://www.w3.org/1999/xlink" version="1.1" x="0px" y="0px" viewBox="0 0 100 100" style="enable-background:new 0 0 100 100;" xml:space="preserve"><g><path d="M73.813,56.249c4.623-8.013,8.29-14.979,8.848-24.351C81.934,17.698,70.65,0,49.042,0   C32.865,0.629,16.445,16.08,16.839,33.961c-0.179,6.716,4.704,18.419,9.409,22.081C13.451,64.853-0.156,76.556,0.001,96.071   c0.486,0.06,3.399,2.314,4.918,3.834c0.744,0.25,93.676-0.022,95.081-0.496C97.744,84.188,91.692,62.128,73.813,56.249z    M4.531,95.5c1.014-9.603,6.629-18.967,12.604-26.625c1.389-1.779,16.33-10.804,15.706-11.301   c-7.174-5.363-10.775-16.181-11.359-22.804C20.812,17.239,34.179,5.264,50.395,3.907c18.158,2.126,28.17,15.848,27.164,28.046   c1.453,8.408-3.38,20.115-8.804,25.836c1.151-0.069,15.196,9.567,17.519,13.447c5.124,8.558,8.76,16.107,9.197,25.172   C95.906,95.797,4.635,95.351,4.531,95.5z M68.755,57.789c-0.024,0.026-0.05,0.055-0.074,0.081   C68.673,57.818,68.699,57.793,68.755,57.789z"></path></g></svg>